<svg version="1.1" xmlns="http://www.w3.org/2000/svg" xmlns:xlink="http://www.w3.org/1999/xlink" x="0px" y="0px" viewBox="0 0 512 512" style="enable-background:new 0 0 512 512;" xml:space="preserve">
<style type="text/css">
	.st0{fill:#C5E9F9;}
	.st1{fill-rule:evenodd;clip-rule:evenodd;fill:#5E889E;}
	.st2{fill:#5E889E;}
</style>
<g id="Layer_1">
<circle class="st0" cx="256.3281" cy="255.9678" r="248.873" id="id_101" style="fill: rgb(255, 255, 255);"></circle>
</g>
<g id="Layer_2">
<g>
<path class="st1" d="M301.8983,264.584c0.2597,0.3309,1.2275,1.2776,0.8215,1.697c-0.2001,0.1982-0.9351-1.0274-1.1082-1.1583
			C301.425,264.988,301.7809,264.634,301.8983,264.584z M301.5981,264.4628c0,0,0.0135-0.0019,0.0154,0.0077
			c-0.0962-0.254-0.3059-0.6311-0.5156-0.8177C300.7516,263.3603,301.0556,264.355,301.5981,264.4628z M257.3133,251.0447
			C257.2902,251.0813,257.219,251.2352,257.3133,251.0447L257.3133,251.0447z M257.3133,251.0447
			c0.0443-0.1154-0.6965,0.05-0.7946,0.2598C256.4898,251.3718,257.2036,251.2756,257.3133,251.0447z M311.3048,268.7456
			c0.05-0.1251-0.8216-0.279-0.8985-0.2559C310.4678,268.659,311.174,269.0554,311.3048,268.7456z M263.6394,352.4669
			c0.025,0.025,0.0346,0.025,0.0404,0.0096c0.0327-0.0289,0.0519-0.0519,0.0462-0.0519
			C263.7221,352.4612,263.6933,352.4746,263.6394,352.4669z M252.7072,293.2806L252.7072,293.2806
			c-0.0019-0.7138-0.685,0.4983-0.6811,0.4983C252.5148,293.9078,252.7072,293.7731,252.7072,293.2806z M252.7072,293.2787
			C252.7072,293.2806,252.7072,293.2806,252.7072,293.2787C252.7072,293.3518,252.7168,293.7115,252.7072,293.2787z
			 M255.8318,262.8081c-0.2039,0.0038-1.0197-0.3309-0.9697-0.1347c0.127,0.5041,0.8812,0.4444,1.1429,0.2001
			C255.9664,262.7985,255.9106,262.7754,255.8318,262.8081C255.8895,262.8081,255.5374,262.8177,255.8318,262.8081z
			 M257.6884,348.363L257.6884,348.363C257.9655,348.4207,257.8347,348.3938,257.6884,348.363z M251.8664,293.8539
			L251.8664,293.8539c0.0308-0.0135,0.075-0.0327,0.1597-0.075C252.0126,293.7731,251.9126,293.827,251.8664,293.8539z
			 M255.6432,260.5628c0.1328,0.1443,1.1198,0.7542,1.2602,0.3925C257.0112,260.6994,255.7914,260.4781,255.6432,260.5628z
			 M245.9847,285.4672c-0.05-0.1212,0-0.1751,0.1462-0.1616c-0.1674-0.4406-3.1092-0.8658-3.2054-0.3867
			c0.0154-0.0789,0.76,0.8562,0.6561,1.0294c-0.2078,0.354-1.0024,0.0616-1.2699,0.0327c-0.3251-0.0327-0.5002,0.3021-0.1212,0.3367
			c0.4521,0.0404,1.7027-0.279,1.9067,0.3059c0.127,0.3636,0.3867-0.1424,0.4675-0.229c0.3001-0.3213,0.6407,0.0423,0.8312-0.2097
			c0.3155-0.4041,0.9947,0.1982,1.2545-0.0058C247.2314,285.7192,246.2175,285.5711,245.9847,285.4672z M242.1906,286.3156
			C242.104,286.306,242.6023,286.3542,242.1906,286.3156L242.1906,286.3156z M261.752,346.4602
			C261.65,346.3505,261.827,346.5583,261.752,346.4602L261.752,346.4602z M248.3743,285.979
			c-0.0346-0.4887-1.0697,0.506-0.4502,0.481C248.6494,286.4407,249.6326,286.0097,248.3743,285.979z M242.1617,284.6379
			c0.0962-0.0077,0.1635-0.05,0.2097-0.1289c0.0423-0.2636-2.7263-1.6758-3.063-1.849c-1.2833-0.6657-3.2266-1.3526-4.0885,0.3886
			c0.3733,0.1154,1.7585-1.2718,2.0298-0.6292c-0.0558,0.1058-0.152,0.1885-0.2598,0.2405
			c-0.0346,0.1828,2.0683,0.5079,2.228,0.6618c0.3367,0.3213-0.0289,0.835,0.708,0.7696c0.7388-0.075-0.2059,0.7061-0.2059,0.7138
			c0.0366,0.1404,2.203-0.0808,2.4377-0.1674C242.0886,284.6629,241.6749,284.8226,242.1617,284.6379z M240.407,280.2397
			C240.4359,280.382,240.3954,280.1973,240.407,280.2397L240.407,280.2397z M240.4743,281.0901
			c0.0462-0.0135-0.0616-0.785-0.0674-0.8504C240.3358,279.8664,239.7047,281.1843,240.4743,281.0901z M239.1371,286.1829
			c-0.429,0.1154,0.4945,0.6118,0.8773,0.4695c0.1482-0.0616,0.304,0.1366,0.4271-0.0308
			C240.7321,286.2387,239.2641,286.1444,239.1371,286.1829z M239.1371,286.1829
			C239.597,286.0617,239.0602,286.1983,239.1371,286.1829L239.1371,286.1829z M325.4482,297.8289
			c-0.0058-0.0192-0.0058-0.0346-0.0058-0.0481c-0.0038,0.202-0.0096,0.4098-0.0096,0.6138
			C325.4385,298.4561,325.4482,298.3042,325.4482,297.8289z M122.6846,229.0399l-4.0462,7.4017h7.9731L122.6846,229.0399z
			 M156.349,233.4035c0.2732-0.2097,0.4079-0.5868,0.4079-1.1255v-2.1876c0-0.5272-0.1347-0.8985-0.4079-1.1121
			c-0.2694-0.2097-0.7696-0.3194-1.5046-0.3194h-9.52v5.0621h9.5181C155.5794,233.7229,156.0796,233.6151,156.349,233.4035z
			 M187.162,234.4271c0-1.8567-0.5041-3.267-1.5123-4.2251c-1.0159-0.9582-2.5031-1.4411-4.481-1.4411h-7.5056v11.5229h5.4796
			c2.911,0,4.9813-0.4579,6.1972-1.3622C186.5559,238.0173,187.162,236.5127,187.162,234.4271z M124.6009,380.2689h8.6215v-7.8423
			h-8.6215V380.2689z M88.4603,380.2689h8.6157v-7.8423h-8.6157V380.2689z M239.8625,266.4926h0.0019
			C239.8625,266.4926,239.8663,266.4926,239.8625,266.4926L239.8625,266.4926z M106.5306,380.2689h8.6196v-7.8423h-8.6196V380.2689z
			 M322.9066,308.2821c0,0.0077,0,0.0154,0,0.0231C322.9219,308.2109,322.9835,307.7241,322.9066,308.2821z M240.1472,262.862
			C240.4397,262.7081,240.1011,262.8812,240.1472,262.862L240.1472,262.862z M261.2921,346.0523
			c-0.1501,0.0481-0.3059,0.5137-0.0712,0.4194c0.1328-0.0539,0.4252-0.3117,0.5753-0.2828v-0.0058
			C261.6557,346.0157,261.4922,345.9657,261.2921,346.0523z M314.414,380.2689h8.6176v-7.8423h-8.6176V380.2689z M278.2715,380.2689
			h8.6138v-7.8423h-8.6138V380.2689z M296.3418,380.2689h8.6176v-7.8423h-8.6176V380.2689z M325.4424,297.7789
			c0-0.05,0.0058-0.1,0.0058-0.1482c-0.0135-0.2039-0.0385-0.4098-0.0519-0.6176
			C325.4135,297.2652,325.427,297.5211,325.4424,297.7789z M307.9589,266.5215c-0.0154-0.0192-0.0288-0.0327-0.0423-0.0481
			c0.0038,0.0308,0.0289,0.05,0.0577,0.0731C307.9743,266.533,307.9685,266.5272,307.9589,266.5215z M169.8016,380.2689h8.6196
			v-7.8423h-8.6196V380.2689z M187.8758,380.2689h8.6196v-7.8423h-8.6196V380.2689z M151.7294,380.2689h8.6196v-7.8423h-8.6196
			V380.2689z M233.0707,380.2689h8.6176v-7.8423h-8.6176C233.0707,372.4266,233.0707,380.2689,233.0707,380.2689z
			 M214.9966,380.2689h8.6176v-7.8423h-8.6176C214.9966,372.4266,214.9966,380.2689,214.9966,380.2689z M251.141,380.2689h8.6215
			v-7.8423h-8.6215V380.2689z M228.582,303.7953c-0.1828-0.102,0.1328,0.8004,0.0577,0.8562
			c0.2732-0.1289,0.1328-0.3405,0.304-0.5291C228.9534,304.132,228.6936,303.853,228.582,303.7953z M273.8097,249.3574
			c0.2694-0.1116,0.7677,0.4579,1.1236,0.2001c-0.2367-0.2694-0.6811-0.2386-0.7504-0.6465
			c-0.0904-0.5406,0.1501-0.6734-0.5503-0.9331c0.0404-0.0308-0.7042-0.3521-0.9024-0.3963
			c-0.5445-0.1077-0.0866-0.3906-0.2963-0.683c-0.1231-0.177-0.7177-0.0212-0.8523-0.0096
			c-0.7812,0.0558-1.5815-0.229-2.3819-0.1866c-1.0428,0.0616-2.0548,0.354-3.1092,0.2732
			c-1.5873-0.1174-4.7696-0.2636-6.0722,0.8293c0.0731,0.0058,0.3021-0.0096,0.3463,0.0923
			c-0.2732,0.2039-0.481,0.0385-0.7619,0.3098c0.1424-0.1366,0.1789-0.0019,0.1231,0.0385
			c0.9024,0.3829,4.8139-1.3257,4.8504-0.8293c0.0135,0.2155-2.0799,0.2732-1.9529,0.785c0.0692,0.2751,1.4526,0.0366,1.6989,0.0885
			c1.0255,0.2059,0.1154,1.0736,0.3252,1.3449c0.0346,0.0404,1.0659-0.0923,1.0832,0.2039
			c-0.1328-0.2463-2.2973,0.7985-0.6696,0.5253c0.127-0.0173,0.3598-0.3021,0.4637-0.2213c0.3367,0.279-0.1116,0.5195-0.3502,0.5099
			c-1.7836-0.0885-0.0712,3.6248,1.5046,3.367c0.8254-0.1289,1.3448,1.0197,1.849-0.1982c0.1789-0.429,0.2405-0.9216,0.7196-1.1371
			c0.3502-0.1597-0.0346-0.6869,0.0827-0.7253c0.5252-0.1962,0.9812-0.2963,1.5315-0.404c0.658-0.1232,0.7735-0.6215,1.3045-0.887
			c0.2116-0.1078,2.8148-0.3771,2.5859-0.8523c-0.2001-0.4117-1.6893,0.3175-1.6739-0.2193
			C273.7616,249.9346,273.3787,249.5363,273.8097,249.3574z M255.5105,249.3747c0.4175,0.0481,0.8004-0.1231,1.1871-0.2443
			c-0.3867,0.1212,0.0404-0.0115,0,0C256.9034,249.0668,255.8472,249.0784,255.5105,249.3747z M257.5191,248.3049
			C257.2902,248.3742,257.4729,248.3088,257.5191,248.3049c-0.2732,0.0038-0.7138-0.0058-0.8831,0.2848
			C257.6115,248.9668,256.9246,248.4666,257.5191,248.3049z M275.8241,251.4161c0.077,0.1174,0.1828,0.1424,0.3059,0.0712
			c-0.0962-0.0192,0.3348-0.0212,0,0c0.1001,0.0019,0.1982,0.0019,0.2905,0.0077c0.0539,0.1116,0.0423,0.1866-0.0288,0.2232
			c0.3733-0.1174,0.6272,0.5002,1.0601,0.4579c0.3829-0.0365,2.3704,0.3271,2.3588-0.5926
			C279.7953,250.6368,275.8184,251.3218,275.8241,251.4161z M258.5196,248.328c-0.0462-0.2386-1.1563,0.379-0.7908,0.4656
			c0.558,0.1366,1.6585,0.1289,2.1337-0.1982C259.5182,248.405,258.6119,248.8687,258.5196,248.328z M262.8467,302.9795
			c0.0789-0.0808,0.1308-0.177,0.1501-0.2905c-0.3175-0.0096-0.6003,0.5791-0.2309,0.4829c-0.0038,0,0.8927-0.1385,0.6118-0.2328
			C263.422,302.9526,262.8467,302.9583,262.8467,302.9795z M348.7979,232.5415v137.3261c0,14.6859-12.0174,26.7014-26.7052,26.7014
			H89.4089c-14.686,0-26.7014-12.0155-26.7014-26.7014V232.5415c0-14.6898,12.0154-26.7014,26.7014-26.7014h232.6838
			C336.7806,205.8402,348.7979,217.8517,348.7979,232.5415z M323.5434,302.5216c0.4695,0.6022,0.4983-1.114,0.4849-0.8927
			c0.0481-0.7273,0.1674-1.1121-0.0385-1.7874c0.0462,0.1481-0.0885,0.1385-0.0789,0.075
			C323.4626,300.3398,323.2433,302.1329,323.5434,302.5216z M323.6146,309.5712c-0.2328,0.962-0.6176,4.0366-0.508,4.0597
			c0.077,0.0192,0.4079-2.5993,0.5368-3.7826c0.0154-0.0731,0.0404-0.2251,0.0519-0.531c0,0.0674-0.0211,0.2636-0.0519,0.531
			C323.6088,309.9868,323.5819,309.7963,323.6146,309.5712z M316.9306,274.4888c0.1116,0.4252,0.5599,0.912,0.785,1.2795
			c0.6773,1.0832,1.3661,2.1568,1.9933,3.267c1.1217,1.9836,2.178,4.1616,2.9437,6.3069c0.0058,0.0115,0.0096,0.0289,0.0154,0.0385
			c0-0.0038,0-0.0077,0-0.0077c0.0077,0.0231,0.0077,0.0193,0.0077,0.0327c0.179,0.4656,0.4502,0.8889,0.6715,1.3333
			c-1.3353-4.4714-3.4209-8.4022-6.0395-12.256C317.2557,274.3983,316.8209,274.1059,316.9306,274.4888z M322.9066,308.2821
			c0,0.0096,0,0.0154-0.0038,0.0288c-0.0058,0.1001,0.0269,0.1712,0.1212,0.1982c0.1655-0.0308-0.1097-4.4579-0.1212-4.937
			C322.5852,305.1652,323.0989,306.7294,322.9066,308.2821z M322.7026,308.4976c-0.3752,0.1347-0.5772,0.3502-0.5195,0.8677
			c0.102-0.0962,0.5195-0.6407,0.5137-0.8427C322.6968,308.5457,322.7122,308.5784,322.7026,308.4976z M303.703,257.4844
			c0.5503,0.4156,1.1005,0.8331,1.6354,1.2737c-0.4021-0.3309-0.8023-0.6561-1.2141-0.9735
			C303.9858,257.6826,303.8416,257.5902,303.703,257.4844z M245.419,252.0144c0.3117-0.1231,0.6272-0.254,0.9428-0.3598
			c-0.1886,0.279-0.5753,0.5041-0.8677,0.6426c0.5849-0.2097,1.2602-0.3309,1.7374-0.7735
			c-0.2097-0.0712-0.3963,0.2174-0.5657-0.0423c0.3521-0.2251,0.7215-0.4137,1.1121-0.5811
			C246.9832,251.2583,246.1963,251.6277,245.419,252.0144z M246.6158,265.0938c0.9774-0.6022-1.3872-0.3463-1.8201,0
			c0.0462-0.0385,0.2501-0.2039-0.0019,0.0038c0,0,0,0,0.0019-0.0038c-0.0019,0.0038-0.0019,0.0038-0.0019,0.0038
			C244.4301,265.4017,246.2964,265.2901,246.6158,265.0938z M242.0943,266.2964c-0.3887,0.404,2.8687-0.0154,2.7686-0.6772
			C244.8168,265.3324,242.2636,266.1155,242.0943,266.2964z M242.7639,254.2982c0.177,0.0423,1.4776-0.3963,1.3199-0.7023
			C244.0203,253.4671,242.8678,254.1712,242.7639,254.2982z M241.4633,255.5873c0.0385-0.0019,0.1289-0.0423,0.2444-0.1058
			c0.4194-0.1231,1.2583-0.3001,1.2391-0.4194c-0.0366-0.2193-0.8254,0.2136-1.2391,0.4194
			C241.5499,255.5315,241.4479,255.5623,241.4633,255.5873z M240.2454,260.3339c0.3271,0.025,1.4372-1.7547,1.5123-1.9798
			c0.0269-0.1231-0.6734,0.1847-0.8466,0.0346c-0.4368-0.3829-0.6215,0.8119-0.4098,0.6541
			C241.2901,258.4503,240.509,260.1953,240.2454,260.3339z M240.1472,262.862c0.3463-0.1789,0.6946,0.1289,1.0813-0.0923
			c0.3733-0.2155,0.7023-0.2655,0.8773,0.2213c0.2501,0.6753,2.3338-0.6676,1.6604-0.9985
			c-0.0423-0.0212-0.3963,0.0712-0.3021-0.1443c0.2347-0.5618-0.2174-0.2693-0.4733-0.4444
			C241.95,261.6864,241.0496,262.4002,240.1472,262.862z M239.8625,266.4907c0,0.0038,0,0,0,0.0038V266.4907v0.0038
			c0.0308,0.0231,0.0519,0.0423,0.0019,0c0.3771,0.3155,1.166-0.912,1.2237-1.1602c0.1789-0.7427,0.8504-1.0755,1.4218-1.4526
			c1.7104-1.1121,0.1001,1.1409,0.0693,1.0967c0.0866,0.1482,0.4271-0.1828,0.5195-0.2059
			c0.3251-0.0923-0.0558,0.5695-0.0019,0.6426c0.2193,0.2655,1.2679-1.2737,1.3199-1.4661c0.3675,0.5406,0.9274,0.4156,0.708-0.3136
			c-0.229-0.7619-1.8721-0.3406-2.3954-0.254c-0.9524,0.1539-1.4084,0.4329-1.8701,1.2602
			C240.7033,264.9226,239.4681,266.1328,239.8625,266.4907z M169.4284,243.7085h10.6244c1.8317,0,3.3382-0.1116,4.5157-0.3367
			c1.1775-0.2232,2.1645-0.5811,2.9572-1.0755c1.2737-0.7811,2.2588-1.8509,2.9553-3.2112
			c0.7042-1.3603,1.0544-2.8899,1.0544-4.5868c0-2.8706-0.8966-5.0871-2.6917-6.6436c-1.8009-1.5642-4.3675-2.3434-7.7076-2.3434
			h-11.7057v18.1973H169.4284z M191.516,323.7761V311.272h-18.4724c-1.0505,0-1.9067,0.8523-1.9067,1.9028v8.6907
			c0,1.0505,0.8562,1.9105,1.9067,1.9105H191.516z M173.0436,327.5876H122.725H86.1342
			c0.9331,6.4416,6.4993,11.4421,13.1949,11.4421h78.8362c6.6936,0,12.2598-5.0024,13.1968-11.4421H173.0436z M191.516,307.4547
			v-12.5003h-18.4724c-1.0505,0-1.9067,0.8524-1.9067,1.9029v8.6927c0,1.0505,0.8562,1.9048,1.9067,1.9048
			C173.0436,307.4547,191.516,307.4547,191.516,307.4547z M191.516,291.1372v-12.5003h-63.4211
			c0.2136,0.6003,0.3502,1.2333,0.3502,1.9048v8.6888c0,1.4719-0.5714,2.7994-1.4834,3.8134
			c0.912,1.0159,1.4834,2.3454,1.4834,3.8115v8.6927c0,1.4719-0.5714,2.7994-1.4834,3.8115
			c0.912,1.0139,1.4834,2.3492,1.4834,3.8134v8.6908c0,0.6753-0.1366,1.3083-0.3502,1.9105h39.5807
			c-0.2174-0.6022-0.3559-1.2372-0.3559-1.9105v-8.6908c0-1.4661,0.581-2.7994,1.493-3.8134c-0.912-1.012-1.493-2.3415-1.493-3.8115
			v-8.6927c0-3.1515,2.5685-5.7201,5.7239-5.7201h18.4724V291.1372z M191.3621,274.8235
			c-0.937-6.4473-6.5032-11.4478-13.1968-11.4478H99.3291c-6.6955,0-12.2636,5.0024-13.1949,11.4478h36.5908H191.3621z
			 M141.1532,243.7085h4.1712v-6.8687h4.0116l7.3343,6.8668h6.076l-8.4002-6.8668h2.3762c1.4469,0,2.4935-0.2848,3.1361-0.8466
			c0.6522-0.5618,0.9774-1.4565,0.9774-2.684v-4.2713c0-1.2391-0.3251-2.1395-0.9774-2.6955
			c-0.6426-0.556-1.6893-0.835-3.1361-0.835h-15.5691V243.7085z M110.496,243.7085h4.2174l2.1183-3.9769h11.5344l2.1837,3.9769
			h4.7542l-10.4339-18.1973h-4.0789L110.496,243.7085z M85.9764,239.4045c0,1.6624,0.3117,2.7975,0.9293,3.3997
			c0.6176,0.6022,1.8143,0.9024,3.5825,0.9024h10.8649c1.7528,0,2.9457-0.3001,3.569-0.9024
			c0.6272-0.6022,0.9389-1.7374,0.9389-3.3997v-2.151l-4.2367-0.8812v3.9115H90.2112v-11.521h11.4132v3.4459l4.2367-0.6734v-1.722
			c0-1.6489-0.3136-2.7802-0.9389-3.3901c-0.6253-0.608-1.8182-0.912-3.569-0.912H90.4882c-1.7682,0-2.9649,0.304-3.5825,0.912
			c-0.6176,0.608-0.9293,1.7393-0.9293,3.3901V239.4045z M85.9764,291.1372h36.7486c1.0505,0,1.9067-0.8562,1.9067-1.9067v-8.6888
			c0-1.0505-0.8562-1.9048-1.9067-1.9048H85.9764C85.9764,278.637,85.9764,291.1372,85.9764,291.1372z M85.9764,307.4547h36.7486
			c1.0505,0,1.9067-0.8543,1.9067-1.9048v-8.6927c0-1.0505-0.8562-1.9028-1.9067-1.9028H85.9764
			C85.9764,294.9545,85.9764,307.4547,85.9764,307.4547z M85.9764,323.7761h36.7486c1.0505,0,1.9067-0.86,1.9067-1.9105v-8.6907
			c0-1.0505-0.8562-1.9028-1.9067-1.9028H85.9764C85.9764,311.272,85.9764,323.7761,85.9764,323.7761z M99.6119,373.2231
			c0-1.1005-0.1886-1.8547-0.5753-2.253c-0.381-0.3983-1.1121-0.6003-2.1876-0.6003h-8.1597c-1.0659,0-1.7932,0.2001-2.176,0.6003
			c-0.3867,0.3983-0.5772,1.1525-0.5772,2.253v6.3608c0,1.1063,0.1924,1.8548,0.5772,2.2569
			c0.3829,0.4002,1.1102,0.5964,2.1761,0.5964h8.1597c1.0755,0,1.8066-0.1963,2.1876-0.5964
			c0.3867-0.4021,0.5753-1.1506,0.5753-2.2569C99.6119,379.5839,99.6119,373.2231,99.6119,373.2231z M117.6841,373.2231
			c0-1.1005-0.1886-1.8547-0.5753-2.253c-0.3829-0.3983-1.114-0.6003-2.1876-0.6003h-8.1597c-1.0659,0-1.7893,0.2001-2.178,0.6003
			c-0.3829,0.3983-0.5753,1.1525-0.5753,2.253v6.3608c0,1.1063,0.1924,1.8548,0.5753,2.2569
			c0.3886,0.4002,1.1121,0.5964,2.178,0.5964h8.1597c1.0755,0,1.8047-0.1963,2.1876-0.5964
			c0.3867-0.4021,0.5753-1.1506,0.5753-2.2569V373.2231z M135.7563,373.2231c0-1.1005-0.1924-1.8547-0.5772-2.253
			c-0.379-0.3983-1.1121-0.6003-2.1857-0.6003h-8.1578c-1.0659,0-1.799,0.2001-2.178,0.6003
			c-0.3829,0.3983-0.5753,1.1525-0.5753,2.253v6.3608c0,1.1063,0.1924,1.8548,0.5753,2.2569
			c0.379,0.4002,1.1121,0.5964,2.178,0.5964h8.1578c1.0736,0,1.8047-0.1963,2.1857-0.5964
			c0.3867-0.4021,0.5772-1.1506,0.5772-2.2569V373.2231z M162.8848,373.2231c0-1.1005-0.1982-1.8547-0.5772-2.253
			c-0.3867-0.3983-1.114-0.6003-2.1857-0.6003h-8.1655c-1.0659,0-1.7893,0.2001-2.1722,0.6003
			c-0.3867,0.3983-0.5811,1.1525-0.5811,2.253v6.3608c0,1.1063,0.1943,1.8548,0.5811,2.2569
			c0.3829,0.4002,1.1063,0.5964,2.1722,0.5964h8.1655c1.0717,0,1.799-0.1963,2.1857-0.5964
			c0.379-0.4021,0.5772-1.1506,0.5772-2.2569V373.2231z M180.9551,373.2231c0-1.1005-0.1924-1.8547-0.5753-2.253
			c-0.3867-0.3983-1.1121-0.6003-2.1837-0.6003h-8.1693c-1.0621,0-1.7893,0.2001-2.1722,0.6003
			c-0.3829,0.3983-0.5791,1.1525-0.5791,2.253v6.3608c0,1.1063,0.1963,1.8548,0.5791,2.2569
			c0.3829,0.4002,1.1102,0.5964,2.1722,0.5964h8.1693c1.0717,0,1.799-0.1963,2.1837-0.5964
			c0.3829-0.4021,0.5753-1.1506,0.5753-2.2569V373.2231z M199.0293,373.2231c0-1.1005-0.1924-1.8547-0.5811-2.253
			c-0.381-0.3983-1.114-0.6003-2.1799-0.6003h-8.1674c-1.064,0-1.7893,0.2001-2.176,0.6003s-0.5753,1.1525-0.5753,2.253v6.3608
			c0,1.1063,0.1886,1.8548,0.5753,2.2569c0.3867,0.4002,1.1121,0.5964,2.176,0.5964h8.1674c1.0659,0,1.799-0.1963,2.1799-0.5964
			c0.3887-0.4021,0.5811-1.1506,0.5811-2.2569V373.2231z M226.1501,373.2231c0-1.1005-0.1886-1.8547-0.5753-2.253
			c-0.3829-0.3983-1.1159-0.6003-2.1876-0.6003h-8.1597c-1.0659,0-1.7893,0.2001-2.1761,0.6003
			c-0.3829,0.3983-0.5733,1.1525-0.5733,2.253v6.3608c0,1.1063,0.1924,1.8548,0.5733,2.2569
			c0.3867,0.4002,1.1102,0.5964,2.1761,0.5964h8.1597c1.0736,0,1.8047-0.1963,2.1876-0.5964
			c0.3867-0.4021,0.5753-1.1506,0.5753-2.2569V373.2231z M244.2242,373.2231c0-1.1005-0.1886-1.8547-0.5753-2.253
			c-0.3829-0.3983-1.1121-0.6003-2.1876-0.6003h-8.1597c-1.0659,0-1.7951,0.2001-2.176,0.6003
			c-0.3867,0.3983-0.5772,1.1525-0.5772,2.253v6.3608c0,1.1063,0.1924,1.8548,0.5772,2.2569
			c0.381,0.4002,1.1102,0.5964,2.176,0.5964h8.1597c1.0755,0,1.8047-0.1963,2.1876-0.5964
			c0.3867-0.4021,0.5753-1.1506,0.5753-2.2569V373.2231z M262.2964,373.2231c0-1.1005-0.1924-1.8547-0.5753-2.253
			c-0.379-0.3983-1.1159-0.6003-2.1895-0.6003h-8.1655c-1.0659,0-1.7855,0.2001-2.1684,0.6003
			c-0.3867,0.3983-0.5772,1.1525-0.5772,2.253v6.3608c0,1.1063,0.1924,1.8548,0.5772,2.2569
			c0.3829,0.4002,1.1044,0.5964,2.1684,0.5964h8.1655c1.0736,0,1.8086-0.1963,2.1895-0.5964
			c0.3828-0.4021,0.5753-1.1506,0.5753-2.2569V373.2231z M289.4211,373.2231c0-1.1005-0.1924-1.8547-0.5753-2.253
			c-0.3829-0.3983-1.1121-0.6003-2.1915-0.6003h-8.1578c-1.0678,0-1.7893,0.2001-2.1703,0.6003
			c-0.3886,0.3983-0.5849,1.1525-0.5849,2.253v6.3608c0,1.1063,0.1963,1.8548,0.5849,2.2569
			c0.381,0.4002,1.1024,0.5964,2.1703,0.5964h8.1578c1.0794,0,1.8067-0.1963,2.1915-0.5964
			c0.3829-0.4021,0.5753-1.1506,0.5753-2.2569V373.2231z M307.4972,373.2231c0-1.1005-0.1963-1.8547-0.5791-2.253
			c-0.3848-0.3983-1.1121-0.6003-2.1876-0.6003h-8.1617c-1.0697,0-1.7893,0.2001-2.1722,0.6003
			c-0.3867,0.3983-0.583,1.1525-0.583,2.253v6.3608c0,1.1063,0.1963,1.8548,0.583,2.2569c0.3829,0.4002,1.1025,0.5964,2.1722,0.5964
			h8.1617c1.0755,0,1.8028-0.1963,2.1876-0.5964c0.3829-0.4021,0.5791-1.1506,0.5791-2.2569V373.2231z M325.5655,373.2231
			c0-1.1005-0.1924-1.8547-0.5753-2.253c-0.3829-0.3983-1.1159-0.6003-2.1857-0.6003h-8.1655c-1.0659,0-1.7874,0.2001-2.1722,0.6003
			c-0.3867,0.3983-0.5791,1.1525-0.5791,2.253v6.3608c0,1.1063,0.1924,1.8548,0.5791,2.2569
			c0.3848,0.4002,1.1063,0.5964,2.1722,0.5964h8.1655c1.0698,0,1.8028-0.1963,2.1857-0.5964
			c0.3829-0.4021,0.5753-1.1506,0.5753-2.2569V373.2231z M325.5925,300.1589c-0.0212-0.785-0.0962-1.5546-0.1443-2.33
			c0-0.0654,0-0.1193,0-0.1982c-0.0308-0.3925-0.0423-0.5753-0.0577-0.6465c0-0.0096,0-0.0154,0-0.025v-0.0096
			c-0.0385-0.1424,0.0096,1.2794,0.0423,1.443c-0.0423,2.1664-0.2828,4.3232-0.4733,6.4743
			c-0.2213,2.5935-0.3059,5.2102-0.7754,7.7788c-0.4387,2.403-1.6527,4.2213-2.5493,6.4281
			c-0.3579,0.9005-0.5272,1.8759-0.8523,2.7841c-0.3944,1.1082-1.2506,1.8355-1.6893,2.8841
			c-0.8293,1.9529-2.1395,3.8076-3.5748,5.3545c-0.6176,0.6715-1.3353,1.545-2.3434,1.5296c-0.4887-0.0154-1.9355,1.2506-1.6681,0
			c0.1982-0.9178,0.7773-1.6161,0.9639-2.5551c0.1982-1.0447,0.1231-2.0953,0.3271-3.0996
			c0.4637-2.2049,1.1987-4.0327,1.0486-6.3319c-0.1462-2.2684,0.3156-3.9442,1.1275-6.0856
			c0.379-0.9985,1.0928-1.5161,0.8485-2.7032c-0.2213-1.1179,0.1712-1.9836-0.1251-3.0727
			c-0.279-1.0024-0.1924-2.0029-0.6907-2.9476c-0.4425-0.8293-1.064-1.6258-1.3122-2.5493
			c-0.1924-0.7427,0.2289-1.6874,0.1732-2.5012c-0.0731-1.1487,0.4771-1.8259-0.4041-2.8533
			c-0.7023-0.8196-1.2448,0.3213-2.0067-0.052c-0.7157-0.3482-0.3944-1.6816-1.3853-1.9067
			c-0.9024-0.2039-1.924,0.5195-2.6128,0.9735c-0.4445,0.2924-0.9197,0.5503-1.3756,0.8196
			c-0.3175,0.1789-1.4315-0.3213-1.8759-0.2848c-0.8138,0.0654-2.0799,1.1871-2.7879,0.8466
			c-0.9582-0.4598-1.6431-1.1833-2.4781-1.8105c-0.7177-0.5233-1.4468-0.6734-1.874-1.4834
			c-0.2155-0.3983-0.279-0.912-0.5368-1.2794c-0.3117-0.4272-0.9389-0.81-1.3314-1.1737c-0.2867-0.2732-0.7003-0.4637-0.5907-0.9639
			c-0.5118-0.0943-0.733,0.1462-1.0736-0.4445c-0.2751-0.4829,0.0231-1.0139-0.2155-1.4507
			c-0.279-0.4906-0.7754-0.6715-0.354-1.2794c0.354-0.5099,0.3098-1.697,0.3001-2.2953c-0.0058-0.6619-0.5695-1.0409-0.6215-1.6219
			c-0.0673-0.6984-0.0365-0.7484-0.5522-1.2699c-0.658-0.6715,0.1885-2.3742,0.5426-3.0726
			c0.2386-0.4771,0.1559-1.0255,0.2232-1.5392c0.0519-0.4098,0.4848-0.4695,0.5676-0.8966
			c0.2444-1.1775,1.4449-1.1294,1.8451-2.3377c0.2097-0.6465-0.202-0.7427-0.3655-1.3257
			c-0.1385-0.4906,0.0423-1.3776,0.3463-1.7662c0.3117-0.4117,0.7677-0.431,0.8254-1.0351
			c0.0808-0.8427-0.3213-1.2871,0.6176-0.7561c0.9101,0.5079,1.9413,0.052,2.5993-0.481c0.4733-0.3906,0.4156-0.4772,1.0082-0.6696
			c0.2828-0.0962,1.8086-0.2001,1.8798-0.2655c0.4425-0.4214,0.8639-0.0424,1.3391-0.2097c0.6561-0.2386,0.304-0.229,0.9678-0.025
			c0.6176,0.1924-0.0443-0.1001,0.4021,0.5656c0.2059,0.1828,0.4079,0.3617,0.6118,0.5426
			c0.2886,0.3771-0.1039,0.7946,0.1308,1.1044c0.683,0.8889,1.9779,0.6234,2.8456,1.0063c0.4964,0.2155,0.6349,0.7773,1.1217,0.9774
			c0.5753,0.2347,1.0736,0.4502,1.6393,0.7196c0.7196,0.3425-1.1178-2.8033,0.2039-2.1414
			c0.5907,0.2905,1.0274,0.6368,1.6777,0.8773c0.3463,0.1289,0.7003,0.2675,1.0467,0.4079c0.4964,0.2039,0.0712-0.3271,0.3656-0.456
			c0.0308-0.0058,0.9832,0.5599,0.7639-0.0135c-0.2982-0.785-0.86-1.5815-1.3141-2.2896c-0.3944-0.6446-0.8985-1.2198-1.291-1.8701
			c-0.2828-0.456-0.2809,0.4425-0.2482,0.4214c-0.1924,0.1231-0.7234-0.6041-0.8408-0.4117
			c-0.0577,0.0847,0.2347,0.3002,0.0519,0.4117c-0.3867,0.229-1.9721-1.4218-2.1703-1.7181
			c-0.2347-0.3656-0.7446-0.5695-0.9216-0.9408c-0.2559-0.5099,0.5176-0.1539,0.3502-0.5137
			c-0.2347-0.4945,0.0288-0.3329-0.0327-0.9024c-0.0577-0.5868,1.3641,0.6234,1.5334,0.3964
			c0.3117-0.4272-1.7682-1.8432-1.9856-2.0087c-0.3194-0.2386-1.2968-1.3179-1.2083-0.4445
			c-0.0038-0.1231-1.1602-0.5214-0.8947-0.8331c0.1193-0.1347,0.4983,0.5349,0.7234,0.2694
			c0.1096-0.1289-0.8427-1.1506-0.9966-1.0698c-0.1385,0.0808,0.1097,0.4579,0.1212,0.5291
			c0.077,0.4175-0.7023-0.1655-0.7792-0.0847c-0.1539,0.1328,1.0197,1.5584,1.1448,1.7297
			c0.3309,0.4637,0.6715,0.9582,1.0832,1.3661c0.1635,0.1616,0.8562,0.4752,0.9331,0.6561
			c-0.0866-0.1886-0.3733,0.5002-0.279,0.4136c-0.1462,0.1328-0.5753-0.4387-0.6946-0.1058
			c-0.0904,0.2328-0.1328,0.6118,0.0404,0.7696c0.2924,0.2751,1.0909,0.7427,1.2833,1.0659
			c0.2444,0.4098,0.3078,0.8523,0.5926,1.2891c-0.5214-0.0827-1.0505-0.558-1.545-1.0659
			c-0.0096-0.0289-0.0289-0.0558-0.0462-0.0808c-0.0019,0.0135,0,0.0231,0.0038,0.0327c-0.3925-0.4098-0.7619-0.8293-1.0967-1.0717
			c-0.7003-0.5233-1.1082-1.4295-1.8932-1.8047c-0.9447-0.4541-1.8701-0.8524-2.7302-1.4526
			c-0.1635-0.1212-1.291-0.7715-1.4007-0.6696c-0.3944,0.4098,1.2371,1.3449,1.4853,1.5027
			c0.3906,0.2405,0.7888,0.4791,1.139,0.7812c0.1328,0.1154,0.7042,0.1577,0.735,0.2059c0.4771,0.7234,1.5123,0.6118,1.9933,1.3545
			c-0.0096-0.0077-0.0154-0.0077-0.0192,0c-0.7812-0.0866-0.9639-0.4445-0.1732,0.4002c0.1674,0.1866,0.5406,0.9582,0.2155,1.1621
			c-0.227,0.1424,0.3482,0.7234,0.3559,0.8831c-0.2001-0.0058-2.0298-0.7908-1.5007-0.9697
			c0.3636-0.1231,0.6311,0.2732,0.9293-0.1982c0.2732-0.4425-0.6676-1.0948-0.9254-1.2737
			c-0.9678-0.6561-2.0933-1.0582-3.0996-1.6431c-0.3309-0.1962-1.6624-1.5584-2.1049-1.2429
			c-0.0288,0.0193-0.3829,0.8023-0.3963,0.8543c-0.0635,0.2636-1.0024-0.0885-1.1467-0.1251
			c-0.8581-0.2136,0.229,1.266,0.1424,1.4199c-0.3117,0.5253-1.3507,1.3295-0.2848,1.9971
			c0.5079,0.3213-0.2444,1.0294-0.2078,1.3102c0.0577,0.4772-0.2848,0.4406-0.6157,0.4733
			c-0.4541,0.0423-1.1179,0.5714-1.4834,0.5349c-0.2963-0.0385-0.5291-0.4983-0.7638-0.6426
			c-0.304-0.1866-0.9293-0.0077-1.2949,0.0154c-0.025,0.0019-1.1852-1.3834-1.1948-1.4276
			c-0.1905-1.0043-0.2848-1.8509-1.0101-2.6648c-1.2641-1.4045,3.6749-0.3001,3.7287-0.8427
			c0.1078-1.0197-1.1351-1.772-1.7874-2.2588c-0.2232-0.1616-2.1799-0.7888-2.126-1.0101c0.1-0.5022,1.1371,0.1347,1.3564-0.1905
			c0.1616-0.2444-0.5156-0.3906-0.4136-0.5656c0.1231-0.2059,1.0832,0.4695,1.1121-0.4753
			c0.0135-0.7042-0.3829,0.0346,0.1193-0.7042c0.1635-0.2482-0.2636-0.8966-0.1058-0.9832c-0.0962-0.5811,0.6772-0.3021,0.76-0.5541
			c0.1193-0.3829-2.455-1.5104-1.924-1.9586c0.2848-0.2443,2.4223,2.3088,2.7321,1.7393c0.3636-0.6561,0.8793,0.3367,1.1909-0.1058
			c0.4791-0.6811,0.4002-0.0558,0.9678-0.2809c-0.4367-0.6696-0.9735-0.8985-1.5546-1.4853
			c-0.1096-0.1116-1.0409-1.1121-1.0101-1.1775c0.1251-0.2905,0.3117,0.0577,0.4214-0.2867
			c0.1443-0.4445-0.8004-0.8927-1.1736-0.7908c0.1924,0.2001,0.533,0.3963,0.7965,0.4868c-0.1597,0.2174-1.1775,0.3598-1.5334,0.127
			c-0.379-0.2405-3.7768-2.4993-3.9173-2.2415c-0.1712,0.3098,2.911,2.2819,3.3074,2.3742c0.5272,0.1231,2.7129,2.0337,2.2434,2.507
			c-0.2232,0.229-3.4921-2.1703-3.5556-1.6758c-0.1289,1.0351-1.1852,0.052-1.7778-0.2751c-0.8408-0.4637-1.7085-0.76-1.5912-1.8432
			c0.0693-0.6522-1.4391-1.57-1.8817-1.9105c-0.8658-0.6522-0.3906-0.9697,0.5772-0.7292c1.1255,0.279,2.303,0.4329,3.392,0.8466
			c0.1847,0.0693,0.077,0.304,0.2598,0.3713c0.6965,0.2636,1.3718,0.6003,2.101,0.7792c-0.1847-0.1597-1.0216-0.4945-1.0447-0.7119
			c0.2944,0.4233,2.0317,0.8523,2.5301,1.0832c1.2179,0.5676,2.4108,1.1794,3.5748,1.8394c1.1833,0.6638,2.3377,1.368,3.4651,2.1183
			c-1.1082-0.733-2.2434-1.4315-3.4036-2.0837c-0.0212-0.0115-0.0423-0.025-0.0616-0.0346
			c-8.4233-4.7504-18.1953-7.3651-28.5715-7.0977c-7.4575,0.1982-14.534,1.8624-20.9659,4.7061
			c0.381-0.1635,0.7792-0.3117,1.1621-0.4579c0.6638,0.4598-0.3521,0.3963-0.2636,0.7138c0.0519,0.2039,1.1198,0.0923,1.1563-0.1635
			c0.0212-0.1962-0.2963-0.1385-0.1058-0.3271c0.3367-0.3559,0.6618-0.3309,1.0794-0.5156
			c0.9582-0.4329,1.6527-1.1967,2.8033-1.2237c-0.0654,0.1154-0.556,0.254-0.4945,0.4021c0.1058,0.2463,0.4271-0.0038,0.5907,0.0116
			c-0.2848,0.5368-2.1857,1.5392-2.7725,1.3968c-0.2944-0.0789-0.8312,0.4387-0.3559,0.4752
			c0.2444,0.0192,1.3257-0.4271,1.4007-0.3829c0.1578,0.0923-0.2136,0.1866-0.0596,0.304c0.4772,0.3579,2.0394-1.4834,2.8244-1.3757
			c-0.1693,0.3579-0.9274,0.9659-1.2699,1.1525c0.102-0.0192,0.5811-0.3098,0.6407-0.1482c0.1116,0.2963-0.8312,0.2848-0.658,0.6061
			c0.0712,0.1481,1.0236-0.3771,1.1217-0.4175c0.6618-0.2636,0.8812-0.3367,0.6407-0.8138
			c-0.0962-0.1982,1.9721-1.2275,2.0741-0.9332c0.0173,0.0308-0.6792,0.4598-0.7253,0.5945
			c0.2251-0.1366,1.7335-1.0697,1.8932-0.6061c0.0481,0.1424-0.2443,0.2713-0.3174,0.3194
			c0.1385,0.0077,1.1794-0.3098,1.2814-0.1308c-0.0443,0.304,0.0904,0.4483,0.4252,0.4368c0.0789,0.0558,0.658,0.2597,0.6272,0.4637
			c-0.0385,0.229-0.7581,0.3483-0.4618,0.608c0.3483,0.3021,1.0024,0.3194,1.3891,0.5964c-0.1789,0.229-1.1929,0.8773-1.4892,0.7292
			c-0.254-0.1289-0.5849-0.9582-0.9062-0.2924c-0.2309,0.4848,0.5849,0.5041,0.1462,1.1371
			c-0.4579,0.6715-0.9331-0.3021-1.2217,0.0115c-0.1231,0.1328,0.3887,0.3867,0.2982,0.5503
			c-0.1578,0.2924-1.6854-0.2559-1.7393-0.4675c-0.2463-0.9639-1.6008-0.1982-1.7085-0.5907
			c-0.102-0.3559,3.2785-0.5772,3.2458-1.493c-0.0962-1.8143-2.3492-0.177-2.9322,0.2867
			c-0.2097,0.1655-1.5334,0.6811-1.5912,0.4791c-0.0866-0.304-0.4271,0.1635-0.1366,0.6484
			c0.0981,0.1732,0.0674,0.9293-0.2944,0.531c-0.3367-0.3771-0.6138-0.0481-0.9697,0.0308
			c-0.1347,0.025-0.6542-0.0616-0.6407-0.0674c0.0462-0.1597,0.7523-0.2405,0.5714-0.4945
			c-0.2251-0.3001-3.9038,1.5007-4.3386,1.7355c-0.556,0.304-1.0928,0.658-1.6008,1.0332c0.2501-0.1847-0.2963,1.0043-0.3617,1.1005
			c0.3213,0.127,0.4214-0.1847,0.8196,0.0596c0.4887,0.3059,0.4887,0.9793,1.2044,0.9832c0.9832,0.0154,0.3502,0.4733,0,0.9793
			c-0.1174,0.1674-0.3963,1.722,0.0404,1.4565c0.7811-0.4733,1.5084-1.0293,1.6354-2.0491
			c0.0289-0.2059,1.9278-0.8158,2.2164-1.1813c0.0923-0.1116,0.5041-0.6676,0.3117-0.8369
			c-0.5349-0.4675,0.3328-0.6118,0.6022-0.8293c0.962-0.7811,0.7484-1.4584,2.1106-1.3256c0.2501,0.025,0.6772-0.2155,0.8619,0.0827
			c0.0346,0.0519,0.7523,0.7446,0.7523,0.5772c-0.0038,0.5945-0.8427,0.5503-0.1866,1.1236
			c0.8196,0.7119,1.518-0.9832,2.1761-0.9274c0.3367,0.0308,0.5618,1.8144,0.633,2.151c0.1289,0.6927,1.4892,0.6176,1.5373,0.9216
			c0.0212,0.1732-0.2905,0.0693-0.3348,0.1866c0.4079,0.0673,1.7162,0.9755,0.7446,1.3718
			c-0.9351,0.3829-2.3396,1.1794-3.3305,1.1929c-1.3045,0.0173-2.5243-0.2232-3.6749,0.4502
			c-1.0005,0.5945-1.9625,1.0255-2.8591,1.7989c0.4444-0.0308,0.86-0.5099,1.2217-0.735c0.5503-0.329,1.1525-0.531,1.7643-0.6869
			c0.2328-0.0577,1.291-0.4002,1.3507,0.1289c0.0654,0.6176-1.1679,0.3444-1.3391,0.5387c0.2097,0.1212,0.5445,0.0731,0.6753,0.1482
			c0.025,0.0115-0.2136,0.7484-0.1154,0.9216c0.3367,0.5945,1.1506,0.4079,1.6931,0.481c0.1443,0.0231,0.6638-0.735,0.8447-0.8485
			c0.277-0.177,0.3309,0.5137,0.1039,0.658c-1.1371,0.7427-2.6205,0.7985-3.6652,1.67c-0.3636,0.2982-0.6734-0.2193-0.3598-0.4964
			c0.5387-0.4695,1.0794-0.4848,1.7066-0.7157c0.1154,0.0154-0.8927-0.1097-0.4848-0.254
			c-1.2949,0.4637-2.9091,0.8292-4.0616,1.6008c-0.2251,0.1635-0.4233,0.3636-0.5907,0.5868c-0.1482,0.2136,0,0.7138-0.0981,0.8042
			c-0.4945,0.4445-1.468,0.2097-2.0433,0.5503c0.0654,0.0808,0.3906,0.0424,0.4675,0.0462c-0.05,0.2116-0.8985,0.304-1.1102,0.5483
			c-0.052,0.0596-1.2448,1.1833-1.1717,0.8273c-0.3617,1.7412-1.0871,0.3521-0.3232-0.2136
			c-0.3367,0.2136-0.3906,0.3829-0.5599,0.7273c-0.1886,0.3733-0.3098-0.0193-0.4483,0.1289
			c0.1366,0.1058,0.2463,0.227,0.3425,0.3752c-0.0808,0.1559-0.1482,0.2039-0.2001,0.1366c0.0019-0.0674-0.0154-0.0866-0.05-0.0423
			c0.3271,0.3136-0.2155,0.3232-0.1328,0.5753c0.0923,0.2597,0.4137,0.1347,0.2039,0.506c-0.0654,0.1154-0.5945,0.2963-0.531,0.381
			c-0.0616-0.0847,0.7196,0.1539,0.2867,0.3059c-0.1385,0.0443-0.6869,0.4425-0.6811,0.4425
			c0.052,0.0231,0.1847,0.0192,0.1462,0.1193c-0.0654,0.1597-1.291,0.6715-1.4873,0.7965
			c-0.6426,0.4252-1.3045,0.8774-1.9105,1.3468c-0.9485,0.7427-1.1332,1.5334-1.1525,2.6782
			c-0.0058,0.6734,0.3636,3.24-0.7042,3.4805c-1.0659,0.2501-0.5214-3.5267-0.8004-4.0366
			c-0.1635-0.3021-0.3309-0.177-0.5599-0.0596c-0.5945,0.3059-0.3906-0.1212-0.8196-0.3694c-0.2597-0.152-2.2953-0.077-2.4012,0.075
			c0.0212-0.0289,0.1174,0.7869,0.1674,0.86c-0.0154-0.0308-0.8716,0.177-1.0178,0.0519c-0.025-0.0211-0.1751-0.633-0.3636-0.429
			c-0.3194,0.3213-0.4733-0.0674-0.7985-0.0385c-0.6445,0.0577-0.8369,0.4483-1.2968,0.785
			c-0.7754,0.5656-1.4026,0.7965-1.7278,1.8105c-0.4387,1.4026-1.4334,2.6994-1.6066,4.2328
			c-0.1635,1.468-0.0654,3.95,1.8182,3.2939c0.6368-0.2174,0.6676,0.0385,1.1217-0.3983c0.5753-0.5483,0.5599-1.6451,1.164-2.0606
			c0.2905-0.202,1.8663-0.6676,2.0683-0.1924c0.1751,0.3925-0.7735,1.341-0.86,1.8028c-0.0462,0.2444-0.1231,0.4791-0.2386,0.7023
			c-0.1154,0.2501-0.2328-0.075-0.3098,0.0346c-0.4406,0.5868-0.1886,1.5546-0.7177,2.2049
			c-0.5137,0.6215,0.6715,0.3925,0.9755,0.4233c0.5002,0.05,0.9235-0.202,1.4372-0.1173c0.6618,0.1173,0.2655,0.2751,0.6715,0.556
			c0.8812,0.6118-0.381,2.7744-0.3925,3.8884c-0.0058,1.5084,1.4411,2.6936,2.6917,1.7624
			c0.4675-0.3559,1.3179-0.1674,1.6316,0.2963c0.6253,0.912,0.8004,0.0693,1.3603-0.3829c0.3963-0.3155,0.3059,0.0597,0.3983-0.3598
			c0.0866-0.3886,0.075-0.8042,0.4137-1.0832c0.4387-0.3598,1.3449-0.4637,1.9202-0.71c0.2694-0.1154,1.0832-1.1775,1.4007-0.6811
			c0.3117,0.4945-0.9889,0.4656-0.4945,1.2794c0.3463,0.5618-0.7138,1.0698-0.0904,1.7355c0.76,0.8081,0.2963-1.722,0.2597-1.5873
			c0.1789-0.5656,1.6239-0.8293,2.0856-0.7042c1.0351,0.2655,0.2655,1.0024,1.5854,0.8254c0.2039-0.025,0.7254-0.1885,0.9447,0.0308
			c0.2751,0.2848,0.6619,0.4925,1.0697,0.3482c0.9024-0.3194,1.341-0.6272,2.3588-0.5984
			c-0.6946,0.2232-0.3098,0.8754,0.2097,0.6061c-0.0115,0.0096-0.0212,0.0154,0,0c-0.102,0.1539,1.0236,0.4002,1.0294,0.8446
			c0.0115,0.5753,1.2294,0.8235,1.7355,1.2545c0.2386,0.2001,0.2655,0.7792,0.5291,0.8581c0.4329,0.127,0.733,0.4637,1.039,0.7639
			c0.4502,0.4233,2.0548-0.0289,2.6724,0.0962c0.9774,0.1924,1.5373,0.6542,2.2934,1.2429
			c0.7812,0.6253,0.8446,1.3353,1.2294,2.2222c0.2482,0.5368,1.039,0.2905,0.7023,1.141c-0.102,0.2386-0.5464,0.4752-0.71,0.683
			c-0.5349,0.6676,0.1847,0.202-0.0096,0.7157c0.1039,0.025,2.2203-0.8196,2.2434-0.0519c0.0366,1.3641-1.4218,0.8331-1.8682,1.4372
			c0.4675,0.3001,1.1063-0.5137,0.9562,0.4502c0.2174-0.5772,0.8427-0.6292,1.0505-1.1255
			c0.2366-0.5618,0.3848-0.7773,1.0409-0.5733c1.3083,0.3983,3.0784,0.556,2.5589,2.2626c0.4406-0.3482,0.8254-0.7792,1.4488-0.6984
			c0.6272,0.0808,1.6085,0.5522,2.2415,0.3328c1.7797-0.6176,2.8437,2.3531,4.7215,1.949c1.518-0.3252,1.1217,3.2881,0.6118,4.0173
			c-0.5541,0.7869-1.3314,1.3969-1.874,2.1972c-0.3271,0.4791-0.5176,1.5315-1.0909,1.1294
			c-0.2867-0.1963-0.3078,2.5705-0.2617,2.7841c0.1635,0.7619-0.2482,1.7836-0.6215,2.3935
			c-0.4406,0.7119-0.0673,1.6085-0.8581,2.3185c-0.3964,0.3598-0.1366,1.0697-0.6215,1.2429
			c-0.2828,0.1001-0.5195,0.6503-0.6561,0.6619c-0.9485,0.1135-1.7047,0.0847-2.5224,0.5214
			c-0.8812,0.4791-1.7855,0.86-2.6224,1.7432c-0.7561,0.8062-0.0135,1.6815-0.3502,2.5685c-0.0616,0.1597-1.62,1.9683-1.3526,2.128
			c-0.1616-0.1077,0.077-0.2924,0.0058-0.4175c-0.2386-0.4406-0.7042,0.5618-0.7465,0.6426
			c-0.1347,0.1424-0.2751,0.2905-0.4079,0.4368c0.0096,0.1886,0.0077,0.3829-0.0115,0.5753
			c0.0443-0.0904-1.5181,0.7581-0.9062,0.9293c0.1385,0.0423,0.1539-0.6176,0.4598-0.4021
			c0.2867,0.2039-0.7273,1.3045-0.9274,1.4065c-0.5426,0.2867-3.1919-0.3733-3.2227-0.3309
			c-0.2732,0.4521,0.8966,0.5926,1.0871,0.8581c-0.0058,0.2117,0.0058,0.4272,0.0635,0.6368
			c0.1366,0.1347,0.7792,0.1943,0.5945,0.5464c-0.8812,1.6816-1.974,1.4122-3.6768,1.6104
			c0.0962,0.4445,0.2405,0.8677,0.4445,1.2737c0.3271,0.6638-1.7932,0.1116-1.849,0.1347c-0.1635,0.0481,0.912,1.5334,0.6926,1.7528
			c-0.429,0.4233,0.4541,0.7734-0.3001,1.1755c-0.8062,0.4329-0.4983,0.962,0.2405,1.2794
			c0.4098,0.1713,1.2602,0.3002,0.6022,0.8754c-0.4406,0.3848-0.3617,0.8369-0.7234,1.3006
			c-0.1328,0.1732,1.0428,1.2699,1.1987,1.4007c0.3405,0.2924,0.7523,0.5214,1.1679,0.6676
			c0.1982,0.0693,0.8927,0.0789,1.0139,0.2193c0.0019,0.0096-1.4218,0.4637-1.67,0.4214c-0.0019-0.0038-0.0096-0.0038-0.0173-0.0058
			c0.0019,0.002,0.0077,0.0058,0.0154,0.0058c-0.0135-0.0038-0.0135-0.0038-0.0231-0.0058c0,0-0.0019,0-0.0058,0
			c0.0038,0,0.0038,0,0.0038,0c-0.0038,0-0.0038,0-0.0135,0c-2.355-0.5079-4.5368-1.6008-5.9048-3.6594
			c-0.381-0.5676-0.0443-0.3425,0.0674-0.8389c0.152-0.7253-0.9178-0.1212-0.8658-0.6253c0.0423-0.4772-0.4521-1.3295-0.2347-1.645
			c0.1789-0.2463,0.4098,0.2963,0.5041,0.3098c0.3617,0.0654-1.1102-3.1207-0.658-1.3314c0.1385,0.5522-0.3098,0.8235-0.3232,0.4117
			c-0.0404-0.5753-0.3213-1.0159-0.531-1.52c-0.254-0.6022-0.1174-0.9678-0.4502-1.5584c-0.5195-0.9158-0.4329-0.9909-0.4137-2.0029
			c0.0154-0.9216,0.0981-1.8451-0.1559-2.7455c-0.1347-0.4502-0.3636-0.8158-0.5811-1.2237
			c-0.152-0.3021,0.1289-0.7388-0.0192-0.9331c-0.4656-0.6426-0.2924-1.4334-0.3328-2.1703
			c-0.052-1.0313-0.3001-2.0202-0.4579-3.0399c-0.229-1.4892-0.4502-3.0861-0.9024-4.6619
			c-0.075-0.2655-1.1833-1.0178-1.4584-1.1948c-0.9158-0.5907-1.9875-0.9062-2.861-1.5719
			c-0.3925-0.3059-0.7523-0.6618-1.0736-1.0505c-0.2463-0.304-0.0712-0.6888-0.2905-1.0389c-0.531-0.8658-1.1717-1.6527-1.67-2.5551
			c-0.8408-1.5142-1.4796-2.9091-2.8244-3.9865c0.1289,0.0981-0.1943-0.9908-0.1866-0.9639
			c-0.2617-1.1159,0.3733-1.0524,0.7946-1.9317c0.1982-0.4271-0.9928-0.4271-0.6926-1.0717
			c0.0674-0.1539-0.0712-0.7619-0.0404-0.8889c0.0923-0.4079,0.3271-0.7561,0.4733-1.1467c0.0923-0.2809-0.127-0.5252,0.1655-0.7465
			c0.1828-0.1347,0.5868-0.1732,0.6811-0.4079c0.2347-0.5849,0.0981-0.9697,0.6946-1.3083c1.62-0.9235-0.1635-6.5667-0.9889-6.1222
			c-0.9177,0.4983-0.3271,2.2992-1.2333,1.2948c-0.4137-0.4598-1.4815-0.4906-1.8663-0.8042
			c0.0115,0.0038-0.5772-1.722-0.8927-1.4545c-0.0115,0.0096,0.0923,0.5041-0.1212,0.3232
			c-0.4906-0.4136-0.3502-0.9581-0.3406-1.5777c0.0885,0.0385,1.0505,0.6272,0.685-0.0808
			c-0.5753-1.1063-0.4079-0.2155-0.6772,0.0866c-0.0096-0.0096-0.0096-0.0115-0.0096-0.0058
			c-0.4502-0.177-1.0794-1.8355-1.1005-1.8144c-0.6984,0.6599-2.6359-1.1505-2.8918-1.7027c-0.8523-1.849-1.62-0.0058-2.8918-1.1217
			c-0.8754-0.7696-2.6647-2.1357-2.4666-3.5132c0.1231-0.7908,0.5503-1.4026,0.5618-2.2434
			c0.0154-0.835,0.0923-1.9298-0.2097-2.7129c-0.1674-0.4271,0.1751-1.3237,0.1789-1.8355
			c0.0038-1.0274,0.2405-2.0452,0.6619-2.9803c0.1482-0.3271,0-0.8427-0.2924-0.3694c-0.481,0.7965-0.6214,1.8509-0.8119,2.7475
			c-0.1001,0.4656-0.6811,4.6388-0.9158,4.608c0.0058,0-0.075-1.4911-0.0712-1.5681c0.0596-0.8427,0.304-1.3045,0.2193-2.176
			c-0.0616-0.6061,0.6542-0.9466,0.6542-1.6181c-0.0096-0.7735,0.3713-1.468,0.6272-2.1837
			c0.3001-0.8389,0.7484-1.6393,0.7388-2.5532c-0.0058-0.7869,0.8119-1.6489,1.1775-2.3088
			c0.9351-1.6527,2.0548-3.1304,3.3131-4.5541c2.1299-2.4146,4.3733-4.9793,6.8822-7.0111
			c0.2463-0.1943,0.4791-0.3983,0.7292-0.5907c-0.1828,0.1424-0.3675,0.2848-0.5406,0.4271
			c-0.0654,0.0481-0.127,0.1116-0.1886,0.1635c-13.3045,10.4474-21.6855,26.7995-21.216,44.9949
			c0.6946,27.0111,20.6042,48.9968,46.3109,53.2373c-1.3545-0.2251-2.6917-0.508-4.0212-0.8389
			c0.2155-0.0019,2.1202,0.4021,2.153,0.2444c0.0192-0.0923-1.7547-0.5233-2.0337-0.71c1.4719-0.075,3.2112,0.1635,4.6657,0.4175
			c0.0096,0.0038,1.3756-0.3867,1.7047-0.2905c-0.3617-0.2155-1.9509-0.5657-1.9567-0.7331
			c-0.0096-0.2001,1.7797-0.4618,1.8317-0.1039c-0.0674-0.431,0.2309-0.3713-0.3964-0.6503c0,0-0.5214-0.0385-0.5156-0.1577
			c-0.0077,0.1462,0.9024-0.7138,1.1275-0.9389c0.0096-0.0096,0.0154-0.0346,0.0577-0.0519
			c0.6946,0.1924,1.7566-0.7773,2.634-0.6099c-0.0866,0.0481-1.0236,0.4041-0.8562,0.4695
			c-0.2924-0.1193-0.7908,0.202-0.7715,0.5156c0,0.0327,0.8927,1.139,0.9774,1.2372c0.3078,0.356,0.7388,0.5811,1.1121,0.8504
			c0.3059,0.2078,0.3405,0.6599,0.733,0.7195c0.5926,0.0885,1.1833,0.177,1.7797,0.254c2.8379,0.3482,5.393-0.0558,8.1193-0.8812
			c1.3007-0.3829,2.6032-0.6426,3.9308-0.9428c1.1467-0.2636,2.4858-0.1231,3.5075-0.7446c0.3733-0.229,0.2097,0.2097,0.5714,0.1982
			c0.5118-0.0211,1.0159-0.0385,1.5277-0.0904c1.0544-0.1212,2.2395-0.0519,3.24-0.3521c-0.5349,0.1578,0.1597-0.0423,0,0
			c0.2405-0.177,0.4079-0.1828,0.5099-0.0231c-1.3045,0.5252-2.6301,1.0024-3.9692,1.4276
			C309.804,347.2375,326.2389,325.4692,325.5925,300.1589z M247.3238,318.993c-0.2155-0.2386-0.5541-0.6061-0.8427-0.7562
			c-0.2617-0.1347-0.3021,0.3829-0.2193,0.4598C246.4426,318.8872,247.8048,319.5164,247.3238,318.993
			C247.5027,319.195,247.1044,318.7506,247.3238,318.993z M256.1896,346.8931c-0.4752-0.1635-0.1654,0.3867-0.1481,0.4329
			c0.1674,0.4868,0.1732,0.025,0.4483,0.2482c0.0346,0.0288,0.0789,0.0616,0.1173,0.1c0.0135-0.0885,0.2386-0.3482,0.1462-0.3906
			c-0.1462,0.0231-0.2963,0.025-0.4502,0.0077C256.0357,347.174,256.3686,346.9546,256.1896,346.8931z M255.7664,299.953
			c0.025,0.2347,0.3771-0.7619,0.5002-0.9254C255.928,299.2238,255.724,299.5586,255.7664,299.953
			C255.7721,299.9992,255.7202,299.5394,255.7664,299.953z M263.7587,307.8626c0.1443,0.3733-0.0058-0.6157-0.1905-0.8812
			C263.3719,307.4336,263.6125,307.4817,263.7587,307.8626z M270.2253,313.7097c-0.0674-0.0385-0.0366-0.0231,0.0038,0.0019
			C270.2291,313.7116,270.2291,313.7116,270.2253,313.7097c0.0038,0.0019,0.0038,0,0.0096,0.0019l0,0
			c0.0558,0.0289,0.1135,0.0616,0.0038,0c0.2732,0.1366,0.3117-0.3829,0.3771-0.5233c0.1578-0.3252,0.2463,0.1501,0.3694,0.0481
			c0.075-0.0674-0.1347-0.5445,0.2097-0.4598c-0.2924-0.0654-0.0462-0.354,0.1482-0.3617c0.6676-0.0115,0.6272-0.3578,0.7657-0.735
			c-0.1732-0.0058-0.229,0.4945-0.5503,0.5195c-0.2963,0.025-0.9101,0.4579-1.0794,0.4021
			C270.8756,312.9497,269.852,313.5019,270.2253,313.7097z M257.3133,257.8769c-0.0019-0.2963-1.1179-0.0058-1.2564,0.3386
			C256.2454,258.0154,257.321,258.0539,257.3133,257.8769z M259.6471,257.8904c-0.1289-0.0288-0.8908,0.1212-0.8716,0.3521
			C258.789,258.4118,259.5855,257.9288,259.6471,257.8904z M252.7168,252.1395c-0.1001-0.0866-0.6311,0.229-0.5811,0.3059
			C252.2242,252.5647,252.6206,252.1991,252.7168,252.1395z M257.8962,251.7432c-0.0038,0.1174,0.5214,0.0616,0.5522-0.1001
			c-0.0424-0.1174-0.1289-0.1751-0.2559-0.1751C258.029,251.4892,257.9328,251.5815,257.8962,251.7432z M292.0301,253.6652
			c0.0346,0.0866,0.3367,0.5003,0.4618,0.2867c0.1963-0.3155-0.5233-0.4675-0.4656-0.2944
			C292.0801,253.7922,292.0474,253.7018,292.0301,253.6652z M293.5096,257.1689c0.0962,0.0923,0.2482,0.304,0.2482,0.1924
			C293.7636,257.3112,293.6058,257.2131,293.5096,257.1689z M306.8603,294.8236c0.0462,0.2097,0.2039,0.3405,0.4695,0.4021
			c0.052-0.1982,0.075-0.3925,0.0654-0.5945c0.1212-0.0115-0.1001-1.1986-0.3906-0.71
			C306.8661,294.1579,307.7665,294.8621,306.8603,294.8236z M263.7587,307.8626
			C263.7798,307.9165,263.6625,307.6125,263.7587,307.8626L263.7587,307.8626z M287.9723,256.4955
			c-0.1212-0.3271-0.5464-0.3867-0.8427-0.381c-0.835,0.0096-0.3309,0.1693-0.3829,0.5599
			c-0.0193,0.127-0.4406-0.0058-0.5214,0.0674c0.0423-0.0423,1.1313,1.6123,1.418,1.6027c1.7104-0.1616,0.6619-1.0197,0.3444-1.8201
			C288.0243,256.6263,288.0531,256.7186,287.9723,256.4955z M287.9723,256.4955c0.0096,0.0058,0.0135,0.0192,0.0135,0.0288
			C287.9473,256.4185,287.905,256.305,287.9723,256.4955z M291.3855,258.6773c0.3348-0.0423,1.0948-0.0096,1.3506-0.2405
			c0.3059-0.2732-0.227-0.2578-0.2886-0.3636c-0.1732-0.2905-0.025-0.6368-0.4348-0.7908
			c-0.7581-0.2867-0.2655,0.1924-0.9755-0.3675c-0.4964-0.3867-1.849-1.316-2.4801-1.2948
			c-0.3848,0.0096-0.3021-0.5445-0.4714-0.7735c-0.1828-0.2405-0.6176-0.0712-0.8658-0.0808
			c0.3829,0.0115-1.1063-0.86-0.8773-0.3521c0.1212,0.2598-0.2059,0.6118,0.2578,0.685c0.0096,0,0.6484,0.6407,0.6522,0.6619
			c0.0577,0.1847,3.4074,1.2852,1.9567,1.3968c0.1231,0.1674,0.279,0.2848,0.4637,0.3636c0.252,0.1924-0.2174,0.4829-0.0847,0.5618
			c0.5907,0.3675,0.9543-0.0981,0.6465,0.9043C290.1522,259.2468,291.2605,258.6523,291.3855,258.6773
			C291.1642,258.6349,291.753,258.6292,291.3855,258.6773z M262.1175,261.2785c-0.0308,0.2559,0.277,0.533,0.1308,0.8119
			c-0.2444,0.4637-1.0082,0.3713-0.8331,0.0135c0.1539-0.3098-1.1563,0.3271-1.1833,0.2559
			c-0.0519-0.1251,0.3406-0.102,0.3156-0.2751c-0.025-0.2232-3.3593-0.0462-1.9991-0.5503c0.0212-0.0135,2.153-2.7628,2.4704-2.1818
			c0.1039,0.1789-1.0063,0.8966-0.8581,1.0505c0.0577,0.0674,0.3194-0.202,0.4637-0.0923c0.0712,0.0539,0.1635,0.7042,0.5002,0.4021
			c0.1462-0.1232,1.0082-0.1328,0.7331,0.2309C261.6384,261.2266,262.1329,261.1631,262.1175,261.2785z M261.9251,261.5037
			c-0.0635-0.0462-0.3425,0.1982-0.2174,0.2886c-0.1135-0.0866,0.1116,0.0808,0,0
			C261.8174,261.8769,262.004,261.5556,261.9251,261.5037z M262.1156,261.7037
			C262.1964,261.8423,262.1868,261.6287,262.1156,261.7037L262.1156,261.7037z M255.6836,248.6301
			c-0.025,0.0019-0.0558,0.0019-0.1328,0.0115c0.3867-0.0346,0.5041-0.1077,0.4906-0.5041
			c-0.4387,0.2598-0.9543,0.2963-1.3564,0.6426c0.2848-0.077,0.5657-0.1231,0.86-0.1366
			C255.5682,248.6397,255.6394,248.634,255.6836,248.6301z M278.791,247.3795c0.3309,0.0558-0.1347-0.1866-0.0616-0.2347
			c-0.608,0.2751-1.5007-0.404-2.2049-0.2001C277.2672,247.1621,278.0233,247.2487,278.791,247.3795
			C278.0425,247.2487,278.8314,247.3891,278.791,247.3795z M253.9116,249.2612C253.4248,249.1861,254.0655,249.29,253.9116,249.2612
			L253.9116,249.2612z M276.334,246.9658c0.0674,0.0308,0.1289,0.025,0.1886-0.0212
			C276.3936,246.8523,276.3263,246.86,276.334,246.9658z M261.7962,346.1812c0.0038,0,0.0038,0,0.0077,0
			c-0.0038,0-0.0077,0.0058-0.0077,0.0058c-0.0923,0.0866-0.1212,0.1789-0.0423,0.2732c0.1328,0.1636,0.9389-0.2597,0.8293-0.3906
			C262.4177,345.8945,261.9867,346.0061,261.7962,346.1812z M254.1021,249.746
			C254.1309,249.7595,254.6581,249.7345,254.1021,249.746L254.1021,249.746z M264.207,331.7857
			c0.075,0.0674,0.3963-0.2597,0.2732-0.3463C264.3955,331.3779,264.1204,331.6934,264.207,331.7857z M254.1021,249.746
			c0.4079-0.0135,1.1005-0.2809,1.341-0.6253C255.1545,249.0361,253.8904,249.6652,254.1021,249.746z M255.5066,249.3805
			c-0.0827-0.0154-0.1424,0.0058-0.1693,0.0866C255.4085,249.4709,255.4912,249.4901,255.5066,249.3805z" id="id_102"></path>
<path class="st2" d="M432.9541,223.7527L225.6556,118.0669c-13.089-6.6763-29.2526-1.4276-35.9212,11.6576l-14.6263,28.7004
			l-19.3151,37.8799h93.6049l-65.7972-33.5432l14.634-28.7043c4.2982-8.4329,14.6571-11.7999,23.0919-7.4979l207.2946,105.6896
			c8.4368,4.3021,11.8019,14.6609,7.4959,23.0919l-14.6302,28.6985l-63.1517-32.1964v81.8165l30.0453,15.317l-14.634,28.7005
			c-3.7018,7.2689-11.9058,10.7552-19.4979,8.837c-1.5431,2.9726-3.494,5.6989-5.7759,8.1212
			c12.6581,5.1024,27.4575-0.2463,33.7664-12.6273l14.6321-28.6966l33.1064-64.9372l14.6359-28.7024
			C451.2822,246.5868,446.0335,230.4251,432.9541,223.7527z" id="id_103"></path>
</g>
</g>
</svg>