<svg version="1.1" xmlns="http://www.w3.org/2000/svg" xmlns:xlink="http://www.w3.org/1999/xlink" x="0px" y="0px" viewBox="0 0 512 512" style="enable-background:new 0 0 512 512;" xml:space="preserve">
<style type="text/css">
	.st0{fill:#C5E9F9;}
	.st1{fill:#5E889E;}
</style>
<g id="Layer_1">
<circle class="st0" cx="256.3281" cy="255.9678" r="248.873" id="id_109" style="fill: rgb(255, 255, 255);"></circle>
</g>
<g id="Layer_2">
<g>
<path class="st1" d="M373.929,193.8758l-37.5859,29.7638h-12.03l30.65-24.2757l14.3033-11.3364l0.0196-0.0125
			c0.1551-0.1212,0.2835-0.2746,0.4243-0.4155c1.3426-1.3426,1.8508-3.2593,1.4175-5.0299
			c-0.1783-0.7346-0.4832-1.4371-0.9771-2.0522l-39.0373-49.2878l-11.3346-14.3105c-1.8311-2.309-5.1832-2.6995-7.494-0.8719
			l-14.3426,11.3649l-121.491,96.2274h-12.0425l143.2348-113.4442c5.5291-4.3737,13.6204-3.4359,17.9995,2.0861l50.3755,63.5947
			C380.3906,181.4054,379.451,189.4985,373.929,193.8758z M356.4037,168.3412c0.0089-0.0054,0.0089-0.0054,0.0125-0.0125
			l-27.9452-35.2751c-9.088,5.4168-20.74,4.0635-28.3713-3.2647l-118.4937,93.8507h57.2436
			c-8.7492-15.5853-6.8343-34.134,5.4382-43.8586c13.8879-10.9994,35.7583-6.5223,48.8421,9.9956
			c8.2553,10.4182,11.0279,23.1292,8.4836,33.863h17.5377l33.9842-26.9217C347.7223,187.6245,349.0702,175.9761,356.4037,168.3412z
			 M268.1803,203.8749c-5.8215,1.865-8.5442,2.2216-9.9243,0.4778c-1.1679-1.4746-1.2249-3.8299,2.1985-6.5472
			c3.8014-3.0061,7.182-3.7176,9.0131-4.224l-3.1862-7.1659c-2.4088,0.5313-5.3704,1.676-9.0309,4.3167l-1.8312-2.3179
			c-0.4689-0.5938-1.1679-1.0128-1.9934-1.1001c-0.8059-0.0963-1.5815,0.1498-2.1842,0.6187l-0.5064,0.4065
			c-0.5973,0.4725-1.0092,1.1679-1.109,1.9863c-0.0945,0.8131,0.1498,1.5905,0.624,2.1878l2.1236,2.6799
			c-4.766,5.579-5.1547,11.8089-1.4781,16.4465c4.051,5.1172,9.9902,4.7089,17.1437,2.1378
			c4.9443-1.7777,7.6366-1.8472,9.2217,0.1516c1.6725,2.1182,0.5349,4.9051-2.4748,7.2872
			c-1.2339,0.9789-2.5372,1.7723-3.8513,2.4213h12.4668c4.9532-5.7787,5.0406-12.2635,1.3925-16.8709
			C281.0376,202.0152,276.2181,201.1219,268.1803,203.8749z" id="id_110"></path>
<path class="st1" d="M375.605,216.2348h-17.9425l13.5759-10.7587c0.0588,0.0535,0.1177,0.0963,0.1694,0.1498
			c2.7975,2.7993,4.1972,6.467,4.1972,10.1346V216.2348z M404.2616,315.5771v34.3872c0,1.1019-0.4208,2.202-1.2588,3.0382
			c-0.8451,0.8416-1.9435,1.2624-3.0436,1.2624h-60.1767c-5.4988,0-10.9958-2.0986-15.1931-6.294
			c-4.1972-4.1972-6.294-9.6978-6.294-15.1966c0-5.5042,2.0968-11.0048,6.294-15.2002c4.1972-4.1954,9.696-6.294,15.1931-6.294
			h60.1767c1.1001,0,2.1985,0.4226,3.0436,1.2588C403.8391,313.3769,404.2616,314.4806,404.2616,315.5771z M350.6179,332.7725
			c0-5.9838-4.8516-10.8354-10.8354-10.8354c-5.982,0-10.8336,4.8516-10.8336,10.8354c0,5.982,4.8516,10.8336,10.8336,10.8336
			C345.7663,343.6061,350.6179,338.7563,350.6179,332.7725z M339.7807,361.4255h56.3485v51.5844
			c0,5.5006-2.1004,10.9994-6.294,15.1966c-4.1972,4.1972-9.696,6.294-15.2002,6.294H129.4101
			c-5.5006,0-11.0012-2.0986-15.1931-6.294c-4.2008-4.1972-6.3012-9.696-6.3012-15.1966V222.9211
			c0-5.497,2.0986-10.9994,6.3012-15.1931c4.1919-4.199,9.6942-6.294,15.1931-6.294h14.1767l-6.3457,14.8026h-7.3531
			c-1.8329,0-3.6677,0.7007-5.0638,2.1004c-1.4068,1.3997-2.1022,3.2362-2.1022,5.0655v0.4761c0,1.8365,0.6972,3.6677,2.1022,5.0673
			c1.3961,1.3997,3.2308,2.0986,5.0638,2.0986h244.7453c5.5042,0,11.0048,2.0986,15.2002,6.294
			c4.1954,4.1972,6.294,9.696,6.294,15.1966v51.5808h-56.3486c-7.6527,0-14.8471,2.9794-20.2604,8.3891
			c-5.4096,5.4168-8.3944,12.6112-8.3944,20.2675c0,7.6544,2.9848,14.8471,8.3944,20.2604
			C324.9336,358.4479,332.1298,361.4255,339.7807,361.4255z M379.6471,284.772c0-1.1804-0.961-2.1485-2.145-2.1485
			s-2.1485,0.9682-2.1485,2.1485v10.0313c0,1.1804,0.9646,2.1485,2.1485,2.1485s2.145-0.9682,2.145-2.1485V284.772z
			 M379.6471,263.2813c0-1.1804-0.961-2.1485-2.145-2.1485s-2.1485,0.9682-2.1485,2.1485v10.0313
			c0,1.1768,0.9646,2.145,2.1485,2.145s2.145-0.9682,2.145-2.145V263.2813z M371.349,249.6698c0,1.1839,0.9646,2.1485,2.1521,2.1485
			h1.134c0.3192,0,0.7186,0.403,0.7186,0.715v1.1376c0,1.1875,0.961,2.1503,2.1485,2.1503c1.1875,0,2.145-0.9628,2.145-2.1503
			v-1.1376c0-2.671-2.3393-5.0138-5.0138-5.0138h-1.134C372.3136,247.5213,371.349,248.4806,371.349,249.6698z M352.3207,249.6698
			c0,1.1804,0.9664,2.1485,2.1503,2.1485h10.0259c1.1839,0,2.1557-0.9682,2.1557-2.1485c0-1.1839-0.9717-2.1503-2.1557-2.1503
			H354.471C353.2871,247.5213,352.3207,248.4859,352.3207,249.6698z M330.8282,249.6698c0,1.1804,0.9628,2.1485,2.1467,2.1485
			h10.0294c1.1839,0,2.1521-0.9682,2.1521-2.1485c0-1.1839-0.9682-2.1503-2.1521-2.1503h-10.0294
			C331.791,247.5213,330.8282,248.4859,330.8282,249.6698z M309.3322,249.6698c0,1.1804,0.9717,2.1485,2.1557,2.1485h10.0241
			c1.1839,0,2.1503-0.9682,2.1503-2.1485c0-1.1839-0.9664-2.1503-2.1503-2.1503h-10.0241
			C310.304,247.5213,309.3322,248.4859,309.3322,249.6698z M124.3945,253.6727c0,1.1875,0.9646,2.1503,2.1521,2.1503
			c1.1875,0,2.1468-0.9628,2.1468-2.1503v-1.1376c0-0.312,0.403-0.715,0.7186-0.715h1.134c1.1893,0,2.1485-0.9646,2.1485-2.1485
			c0-1.1893-0.9593-2.1503-2.1485-2.1503h-1.134c-2.6745,0-5.0156,2.3429-5.0156,5.0138v1.1376H124.3945z M124.3945,273.3126
			c0,1.1768,0.9682,2.145,2.1521,2.145c1.1839,0,2.1468-0.9682,2.1468-2.145v-10.0313c0-1.1804-0.9628-2.1485-2.1468-2.1485
			c-1.1839,0-2.1521,0.9682-2.1521,2.1485V273.3126z M124.3945,294.8033c0,1.1804,0.9682,2.1485,2.1521,2.1485
			c1.1839,0,2.1468-0.9682,2.1468-2.1485V284.772c0-1.1804-0.9628-2.1485-2.1468-2.1485c-1.1839,0-2.1521,0.9682-2.1521,2.1485
			V294.8033z M124.3945,316.2957c0,1.1804,0.9682,2.1485,2.1521,2.1485c1.1839,0,2.1468-0.9682,2.1468-2.1485v-10.0313
			c0-1.1804-0.9628-2.1485-2.1468-2.1485c-1.1839,0-2.1521,0.9682-2.1521,2.1485V316.2957z M124.3945,337.7881
			c0,1.1839,0.9682,2.1485,2.1521,2.1485c1.1839,0,2.1468-0.9646,2.1468-2.1485v-10.0313c0-1.1804-0.9628-2.1485-2.1468-2.1485
			c-1.1839,0-2.1521,0.9682-2.1521,2.1485V337.7881z M124.3945,359.2806c0,1.1839,0.9682,2.145,2.1521,2.145
			c1.1839,0,2.1468-0.961,2.1468-2.145v-10.0313c0-1.1804-0.9628-2.1485-2.1468-2.1485c-1.1839,0-2.1521,0.9682-2.1521,2.1485
			V359.2806z M124.3945,380.7677c0,1.1875,0.9682,2.1521,2.1521,2.1521c1.1839,0,2.1468-0.9646,2.1468-2.1521V370.74
			c0-1.1804-0.9628-2.1485-2.1468-2.1485c-1.1839,0-2.1521,0.9682-2.1521,2.1485V380.7677z M124.3945,402.2637
			c0,1.1839,0.9682,2.1485,2.1521,2.1485c1.1839,0,2.1468-0.9646,2.1468-2.1485v-10.0313c0-1.1804-0.9628-2.1485-2.1468-2.1485
			c-1.1839,0-2.1521,0.9682-2.1521,2.1485V402.2637z M132.6962,415.8734c0-1.1857-0.9628-2.1485-2.1503-2.1485h-1.1376
			c-0.3156,0-0.7186-0.403-0.7186-0.715v-1.1376c0-1.1875-0.9593-2.1485-2.1468-2.1485s-2.1521,0.9611-2.1521,2.1485v1.1376
			c0,2.671,2.3429,5.0156,5.0156,5.0156h1.1376C131.7352,418.0237,132.6962,417.0645,132.6962,415.8734z M151.7299,415.8734
			c0-1.1804-0.9717-2.1485-2.1503-2.1485h-10.0294c-1.1839,0-2.1503,0.9682-2.1503,2.1485s0.9664,2.1503,2.1503,2.1503h10.0294
			C150.7581,418.0237,151.7299,417.0538,151.7299,415.8734z M151.7299,249.6698c0-1.1839-0.9717-2.1503-2.1503-2.1503h-10.0294
			c-1.1839,0-2.1503,0.9664-2.1503,2.1503c0,1.1804,0.9664,2.1485,2.1503,2.1485h10.0294
			C150.7581,251.8184,151.7299,250.8502,151.7299,249.6698z M173.2188,415.8734c0-1.1804-0.9682-2.1485-2.1485-2.1485h-10.0241
			c-1.1875,0-2.1539,0.9682-2.1539,2.1485s0.9664,2.1503,2.1539,2.1503h10.0241
			C172.2506,418.0237,173.2188,417.0538,173.2188,415.8734z M173.2188,249.6698c0-1.1839-0.9682-2.1503-2.1485-2.1503h-10.0241
			c-1.1875,0-2.1539,0.9664-2.1539,2.1503c0,1.1804,0.9664,2.1485,2.1539,2.1485h10.0241
			C172.2506,251.8184,173.2188,250.8502,173.2188,249.6698z M194.7148,415.8734c0-1.1804-0.9717-2.1485-2.1521-2.1485h-10.0312
			c-1.1839,0-2.1467,0.9682-2.1467,2.1485s0.9628,2.1503,2.1467,2.1503h10.0312
			C193.743,418.0237,194.7148,417.0538,194.7148,415.8734z M194.7148,249.6698c0-1.1839-0.9717-2.1503-2.1521-2.1503h-10.0312
			c-1.1839,0-2.1467,0.9664-2.1467,2.1503c0,1.1804,0.9628,2.1485,2.1467,2.1485h10.0312
			C193.743,251.8184,194.7148,250.8502,194.7148,249.6698z M216.2019,415.8734c0-1.1804-0.9646-2.1485-2.1485-2.1485h-10.0277
			c-1.1839,0-2.1503,0.9682-2.1503,2.1485s0.9664,2.1503,2.1503,2.1503h10.0277
			C215.2372,418.0237,216.2019,417.0538,216.2019,415.8734z M216.2019,249.6698c0-1.1839-0.9646-2.1503-2.1485-2.1503h-10.0277
			c-1.1839,0-2.1503,0.9664-2.1503,2.1503c0,1.1804,0.9664,2.1485,2.1503,2.1485h10.0277
			C215.2372,251.8184,216.2019,250.8502,216.2019,249.6698z M237.6943,415.8734c0-1.1804-0.9682-2.1485-2.1468-2.1485h-10.0294
			c-1.1839,0-2.1503,0.9682-2.1503,2.1485s0.9664,2.1503,2.1503,2.1503h10.0294
			C236.7261,418.0237,237.6943,417.0538,237.6943,415.8734z M237.6943,249.6698c0-1.1839-0.9682-2.1503-2.1468-2.1503h-10.0294
			c-1.1839,0-2.1503,0.9664-2.1503,2.1503c0,1.1804,0.9664,2.1485,2.1503,2.1485h10.0294
			C236.7261,251.8184,237.6943,250.8502,237.6943,249.6698z M259.1867,415.8734c0-1.1804-0.9664-2.1485-2.1503-2.1485h-10.0277
			c-1.1839,0-2.1467,0.9682-2.1467,2.1485s0.9628,2.1503,2.1467,2.1503h10.0277
			C258.2203,418.0237,259.1867,417.0538,259.1867,415.8734z M259.1867,249.6698c0-1.1839-0.9664-2.1503-2.1503-2.1503h-10.0277
			c-1.1839,0-2.1467,0.9664-2.1467,2.1503c0,1.1804,0.9628,2.1485,2.1467,2.1485h10.0277
			C258.2203,251.8184,259.1867,250.8502,259.1867,249.6698z M280.6792,415.8734c0-1.1804-0.9628-2.1485-2.1468-2.1485h-10.033
			c-1.1786,0-2.1503,0.9682-2.1503,2.1485s0.9717,2.1503,2.1503,2.1503h10.033
			C279.7164,418.0237,280.6792,417.0538,280.6792,415.8734z M280.6792,249.6698c0-1.1839-0.9628-2.1503-2.1468-2.1503h-10.033
			c-1.1786,0-2.1503,0.9664-2.1503,2.1503c0,1.1804,0.9717,2.1485,2.1503,2.1485h10.033
			C279.7164,251.8184,280.6792,250.8502,280.6792,249.6698z M302.1734,415.8734c0-1.1804-0.9699-2.1485-2.1485-2.1485h-10.0294
			c-1.1839,0-2.1503,0.9682-2.1503,2.1485s0.9664,2.1503,2.1503,2.1503h10.0294
			C301.2035,418.0237,302.1734,417.0538,302.1734,415.8734z M302.1734,249.6698c0-1.1839-0.9699-2.1503-2.1485-2.1503h-10.0294
			c-1.1839,0-2.1503,0.9664-2.1503,2.1503c0,1.1804,0.9664,2.1485,2.1503,2.1485h10.0294
			C301.2035,251.8184,302.1734,250.8502,302.1734,249.6698z M323.6623,415.8734c0-1.1804-0.9664-2.1485-2.1503-2.1485h-10.0241
			c-1.1839,0-2.1557,0.9682-2.1557,2.1485s0.9717,2.1503,2.1557,2.1503h10.0241
			C322.6959,418.0237,323.6623,417.0538,323.6623,415.8734z M375.3536,380.7677c0,1.1875,0.9646,2.1521,2.1485,2.1521
			s2.145-0.9646,2.145-2.1521V370.74c0-1.1804-0.961-2.1485-2.145-2.1485s-2.1485,0.9682-2.1485,2.1485V380.7677z
			 M375.3536,402.2637c0,1.1839,0.9646,2.1485,2.1485,2.1485s2.145-0.9646,2.145-2.1485v-10.0313
			c0-1.1804-0.961-2.1485-2.145-2.1485s-2.1485,0.9682-2.1485,2.1485V402.2637z M371.349,415.8734
			c0,1.191,0.9646,2.1503,2.1521,2.1503h1.134c2.6745,0,5.0138-2.3429,5.0138-5.0156v-1.1376c0-1.1875-0.9575-2.1485-2.145-2.1485
			c-1.1875,0-2.1485,0.9611-2.1485,2.1485v1.1376c0,0.3138-0.4012,0.715-0.7186,0.715h-1.134
			C372.3136,413.7249,371.349,414.6877,371.349,415.8734z M352.3207,415.8734c0,1.1804,0.9664,2.1503,2.1503,2.1503h10.0259
			c1.1839,0,2.1557-0.97,2.1557-2.1503s-0.9717-2.1485-2.1557-2.1485H354.471
			C353.2871,413.7249,352.3207,414.6931,352.3207,415.8734z M343.0044,413.7249h-10.0294c-1.1839,0-2.1467,0.9682-2.1467,2.1485
			s0.9628,2.1503,2.1467,2.1503h10.0294c1.1839,0,2.1521-0.97,2.1521-2.1503S344.1883,413.7249,343.0044,413.7249z" id="id_111"></path>
<path class="st1" d="M200.8983,172.378l6.2174,4.7927c-1.3693,1.3123-4.0082,3.5482-5.9196,8.0039
			c-0.0428,0.0999-0.066,0.1819-0.1034,0.2782l-8.5834,6.8004c-0.1854-1.7064-0.0838-3.5607,0.337-5.538l-3.1452-1.3462
			c-0.6972-0.2995-1.2838-0.8648-1.5833-1.6243c-0.3067-0.7613-0.2692-1.5744,0.025-2.2733l0.2568-0.5991
			c0.3031-0.7007,0.8683-1.2838,1.6332-1.5904c0.756-0.3067,1.5708-0.271,2.2715,0.0285l2.712,1.1679
			C196.9703,176.4076,199.0332,173.9952,200.8983,172.378z M292.3954,110.8943L217.8298,78.932
			c-6.4759-2.7797-14.0448,0.2496-16.8263,6.722l-59.1425,137.9856h8.1252l50.6804-118.2245l7.2105-16.8192
			c1.1625-2.7048,4.3024-3.9601,7.0072-2.7975l16.7853,7.1909l55.901,23.969l6.5169-5.1636
			C293.5526,111.4596,292.9927,111.1475,292.3954,110.8943z M271.5644,113.5992c0.0053-0.0089,0.0053-0.0143,0.0053-0.0178
			l-41.3659-17.7303c-5.4168,9.0934-16.3074,13.4475-26.5081,10.6339l-49.9137,116.4361l25.9946-20.5867
			c-4.0956-8.0753-4.873-17.1597-1.3747-25.3277c6.9787-16.2843,28.3428-22.753,47.717-14.4495
			c0.8309,0.3566,1.6404,0.7435,2.4391,1.1429l43.962-34.8205C270.5641,124.1457,270.1291,118.786,271.5644,113.5992z" id="id_112"></path>
</g>
</g>
</svg>